<?xml version="1.0" encoding="UTF-8"?>
<svg width="99px" height="36px" viewBox="0 0 99 36" version="1.1" xmlns="http://www.w3.org/2000/svg" xmlns:xlink="http://www.w3.org/1999/xlink">
    <!-- Generator: Sketch 52.3 (67297) - http://www.bohemiancoding.com/sketch -->
    <title>Group 22</title>
    <desc>Created with Sketch.</desc>
    <defs>
        <polygon id="path-1" points="0 0.9812 4.0368 0.9812 4.0368 5.0192 0 5.0192"></polygon>
        <polygon id="path-3" points="0.2205 0.9445 4.257 0.9445 4.257 4.9815 0.2205 4.9815"></polygon>
    </defs>
    <g id="Page-1" stroke="none" stroke-width="1" fill="none" fill-rule="evenodd">
        <g id="Group-22">
            <g id="Group-19" transform="translate(0.000000, 4.000000)">
                <g id="Group-3" transform="translate(0.000000, 6.000000)">
                    <mask id="mask-2" fill="white">
                        <use xlink:href="#path-1"></use>
                    </mask>
                    <g id="Clip-2"></g>
                    <path d="M4.0368,3.0002 C4.0368,4.1152 3.1328,5.0192 2.0178,5.0192 C0.9038,5.0192 -0.0002,4.1152 -0.0002,3.0002 C-0.0002,1.8852 0.9038,0.9812 2.0178,0.9812 C3.1328,0.9812 4.0368,1.8852 4.0368,3.0002" id="Fill-1" fill="#BD10E0" mask="url(#mask-2)"></path>
                </g>
                <path d="M9.4787,23.4162 C9.4787,24.5312 8.5747,25.4352 7.4597,25.4352 C6.3457,25.4352 5.4417,24.5312 5.4417,23.4162 C5.4417,22.3022 6.3457,21.3982 7.4597,21.3982 C8.5747,21.3982 9.4787,22.3022 9.4787,23.4162" id="Fill-4" fill="#0077FF"></path>
                <g id="Group-8" transform="translate(94.000000, 2.000000)">
                    <mask id="mask-4" fill="white">
                        <use xlink:href="#path-3"></use>
                    </mask>
                    <g id="Clip-7"></g>
                    <path d="M4.2575,2.9635 C4.2575,4.0785 3.3535,4.9815 2.2385,4.9815 C1.1235,4.9815 0.2205,4.0785 0.2205,2.9635 C0.2205,1.8485 1.1235,0.9445 2.2385,0.9445 C3.3535,0.9445 4.2575,1.8485 4.2575,2.9635" id="Fill-6" fill="#BD10E0" mask="url(#mask-4)"></path>
                </g>
                <path d="M92.845,27.4537 C91.731,27.4537 90.828,26.5497 90.828,25.4347 C90.828,24.3207 91.731,23.4157 92.845,23.4157 C93.961,23.4157 94.864,24.3207 94.864,25.4347 C94.864,26.5497 93.961,27.4537 92.845,27.4537 Z" id="Fill-9" fill="#0077FF"></path>
                <path d="M2.0183,9.0002 C2.0183,9.0002 17.0663,10.0962 17.0663,3.8792 C17.0663,-2.3378 30.5291013,2.428 33,3.8792" id="Stroke-11" stroke="#BD10E0" stroke-width="2"></path>
                <path d="M7.4602,23.4162 C7.4602,23.4162 17.3482,22.7292 17.1152,16.1922 C16.8812,9.6562 26.1898,11.4838 28,13" id="Stroke-13" stroke="#0077FF" stroke-width="2"></path>
                <path d="M92.8454,25.4347 C92.8454,25.4347 80.1174,25.8097 79.8664,17.6547 C79.6144,9.4997 72.1916,10.9963 70,10" id="Stroke-15" stroke="#0077FF" stroke-width="2"></path>
                <path d="M96.239,4.9635 C96.239,4.9635 77.347,34.2015 71.052,27.4535 C64.758,20.7055 65.124,21.0495 62,18" id="Stroke-17" stroke="#BD10E0" stroke-width="2"></path>
            </g>
            <path d="M46.7394,0 C37.9894,0 30.7004,6.254 29.0834,14.531 C26.0914,17.406 23.8874,20.379 22.7084,23.25 C21.5054,26.172 21.3684,29.07 22.7704,31.406 C24.8214,34.805 29.4624,36.02 34.9894,35.594 C36.6264,35.469 38.3524,35.164 40.1454,34.75 C42.1694,35.512 44.4344,36 46.7394,36 C55.4814,36 62.7004,29.836 64.3334,21.562 C65.8954,20.043 67.2624,18.508 68.3644,16.969 C69.9344,14.777 71.0094,12.586 71.4584,10.5 C71.9074,8.414 71.7314,6.387 70.7084,4.688 C69.3644,2.465 66.8644,1.16 63.8334,0.656 C62.3174,0.402 60.6454,0.355 58.8644,0.469 C57.1374,0.578 55.3014,0.848 53.3954,1.281 C51.3374,0.461 49.1024,0 46.7394,0 M46.7394,2 C52.5984,2 57.6064,5.105 60.4584,9.719 C60.4424,9.824 60.4504,9.922 60.4274,10.031 C60.1924,11.133 59.5794,12.438 58.6144,13.781 C56.6804,16.469 53.3334,19.336 49.1454,21.625 C44.9034,23.965 40.6374,25.289 37.2394,25.562 C35.1654,25.73 33.4734,25.48 32.2704,24.938 C31.3214,22.84 30.7394,20.496 30.7394,18 C30.7394,9.141 37.8804,2 46.7394,2 M60.2084,2.406 C61.3914,2.387 62.4894,2.457 63.4894,2.625 C66.1574,3.07 68.0324,4.141 68.9894,5.719 C69.7164,6.922 69.8914,8.375 69.5204,10.094 C69.1494,11.812 68.1924,13.75 66.7394,15.781 C63.8294,19.844 58.8874,24.18 52.6454,27.719 C46.3564,31.207 39.9814,33.195 34.8334,33.594 C29.6844,33.992 25.9384,32.777 24.4894,30.375 C23.4894,28.711 23.5054,26.582 24.5514,24.031 C25.3604,22.062 26.7864,19.883 28.7394,17.719 L28.7394,18 C28.7394,18.383 28.7474,18.75 28.7704,19.125 C28.0284,20.984 27.8874,22.988 28.8954,24.625 C30.3954,27.062 33.6184,27.863 37.3954,27.562 C41.1734,27.262 45.6574,25.832 50.1144,23.375 C54.5284,20.965 58.0714,17.949 60.2394,14.938 C61.3214,13.43 62.0484,11.91 62.3644,10.438 C62.6804,8.965 62.5554,7.508 61.8014,6.281 C60.9154,4.762 59.3014,3.965 57.4584,3.531 C57.0944,3.262 56.7164,3.023 56.3334,2.781 C57.7004,2.566 58.9974,2.426 60.2084,2.406 M61.5204,24.094 C59.1454,29.922 53.4584,34 46.7394,34 C45.7784,34 44.8054,33.918 43.8644,33.75 C47.0364,32.723 50.3374,31.285 53.6144,29.469 L53.6454,29.469 C56.5714,27.809 59.2044,26 61.5204,24.094" id="Fill-20" fill="#1D1D1B"></path>
        </g>
    </g>
</svg>